<?xml version="1.0" standalone="no"?>
<!DOCTYPE svg PUBLIC "-//W3C//DTD SVG 20010904//EN"
 "http://www.w3.org/TR/2001/REC-SVG-20010904/DTD/svg10.dtd">
<svg version="1.0" xmlns="http://www.w3.org/2000/svg"
 width="543.000000pt" height="543.000000pt" viewBox="0 0 543.000000 543.000000"
 preserveAspectRatio="xMidYMid meet">
<metadata>
Created by potrace 1.14, written by Peter Selinger 2001-2017
</metadata>
<g transform="translate(0.000000,543.000000) scale(0.100000,-0.100000)"
fill="#000000" stroke="none">
<path d="M2445 5419 c-902 -86 -1724 -646 -2145 -1462 -215 -416 -311 -847
-297 -1326 8 -285 48 -509 134 -769 295 -887 1029 -1565 1935 -1786 268 -66
616 -92 884 -67 1502 141 2603 1462 2464 2956 -113 1207 -1019 2202 -2204
2420 -238 43 -533 56 -771 34z m-450 -1098 c81 -37 124 -107 125 -198 l0 -53
-65 0 -65 0 0 41 c0 51 -14 77 -47 90 -35 13 -77 -4 -92 -37 -16 -35 -14 -312
2 -344 9 -17 26 -28 56 -36 42 -10 81 -43 81 -69 0 -7 -9 -24 -21 -39 -55 -69
-217 10 -248 121 -14 50 -14 347 0 397 6 21 27 56 47 78 62 65 151 84 227 49z
m1350 0 c81 -37 124 -107 125 -198 l0 -53 -65 0 -65 0 0 41 c0 51 -14 77 -47
90 -35 13 -77 -4 -92 -37 -16 -35 -14 -312 2 -344 9 -17 26 -28 56 -36 51 -12
84 -47 75 -78 -11 -38 -35 -56 -73 -56 -79 1 -169 70 -190 147 -14 50 -14 347
0 397 6 21 27 56 47 78 62 65 151 84 227 49z m833 -1864 l-3 -902 -33 -67
c-50 -102 -129 -174 -233 -212 l-44 -17 54 5 c121 12 244 103 304 226 l32 65
3 903 2 903 43 -3 42 -3 3 -830 c1 -468 -2 -864 -7 -908 -18 -151 -116 -285
-248 -339 l-58 -23 -1230 -3 c-676 -1 -1291 2 -1367 6 -120 8 -144 13 -200 39
-126 59 -210 175 -228 315 -5 41 -10 446 -10 911 l0 837 1590 0 1590 0 -2
-903z"/>
<path d="M1890 2835 l0 -175 175 0 175 0 0 175 0 175 -175 0 -175 0 0 -175z"/>
<path d="M2420 2835 l0 -175 175 0 175 0 0 175 0 175 -175 0 -175 0 0 -175z"/>
<path d="M2950 2835 l0 -175 175 0 175 0 0 175 0 175 -175 0 -175 0 0 -175z"/>
<path d="M3470 2835 l0 -175 180 0 180 0 0 175 0 175 -180 0 -180 0 0 -175z"/>
<path d="M1360 2305 l0 -175 175 0 175 0 0 175 0 175 -175 0 -175 0 0 -175z"/>
<path d="M1890 2305 l0 -175 175 0 175 0 0 175 0 175 -175 0 -175 0 0 -175z"/>
<path d="M2420 2305 l0 -175 175 0 175 0 0 175 0 175 -175 0 -175 0 0 -175z"/>
<path d="M2950 2305 l0 -175 175 0 175 0 0 175 0 175 -175 0 -175 0 0 -175z"/>
<path d="M3470 2305 l0 -175 180 0 180 0 0 175 0 175 -180 0 -180 0 0 -175z"/>
<path d="M1360 1775 l0 -175 175 0 175 0 0 175 0 175 -175 0 -175 0 0 -175z"/>
<path d="M1890 1775 l0 -175 175 0 175 0 0 175 0 175 -175 0 -175 0 0 -175z"/>
<path d="M2410 1775 l0 -175 180 0 180 0 0 175 0 175 -180 0 -180 0 0 -175z"/>
<path d="M2940 1775 l0 -175 180 0 180 0 0 175 0 175 -180 0 -180 0 0 -175z"/>
</g>
</svg>
